<mxfile host="app.diagrams.net" modified="2022-02-02T07:11:48.076Z" agent="5.0 (Macintosh; Intel Mac OS X 10_15_7) AppleWebKit/537.36 (KHTML, like Gecko) Chrome/97.0.4692.99 Safari/537.36" etag="cRPGTgF5a8OQDUGDcqaH" version="16.5.2" type="github" pages="3">
  <diagram id="4uab9OP-IaXWsomK-0Jk" name="Flow">
    <mxGraphModel dx="1298" dy="777" grid="1" gridSize="10" guides="1" tooltips="1" connect="1" arrows="1" fold="1" page="1" pageScale="1" pageWidth="1654" pageHeight="1169" math="0" shadow="0">
      <root>
        <mxCell id="0" />
        <mxCell id="1" parent="0" />
        <mxCell id="aPHUXNIeI92vyV6Ut_RM-1" style="edgeStyle=orthogonalEdgeStyle;rounded=0;orthogonalLoop=1;jettySize=auto;html=1;exitX=1;exitY=0.5;exitDx=0;exitDy=0;entryX=0.5;entryY=0;entryDx=0;entryDy=0;" parent="1" source="aPHUXNIeI92vyV6Ut_RM-4" target="aPHUXNIeI92vyV6Ut_RM-27" edge="1">
          <mxGeometry relative="1" as="geometry" />
        </mxCell>
        <mxCell id="aPHUXNIeI92vyV6Ut_RM-2" style="edgeStyle=orthogonalEdgeStyle;rounded=0;orthogonalLoop=1;jettySize=auto;html=1;exitX=1;exitY=0.5;exitDx=0;exitDy=0;entryX=0.5;entryY=0;entryDx=0;entryDy=0;" parent="1" source="aPHUXNIeI92vyV6Ut_RM-4" target="aPHUXNIeI92vyV6Ut_RM-31" edge="1">
          <mxGeometry relative="1" as="geometry" />
        </mxCell>
        <mxCell id="aPHUXNIeI92vyV6Ut_RM-3" style="edgeStyle=orthogonalEdgeStyle;rounded=0;orthogonalLoop=1;jettySize=auto;html=1;exitX=1;exitY=0.5;exitDx=0;exitDy=0;" parent="1" source="aPHUXNIeI92vyV6Ut_RM-4" target="aPHUXNIeI92vyV6Ut_RM-41" edge="1">
          <mxGeometry relative="1" as="geometry">
            <Array as="points">
              <mxPoint x="330" y="70" />
              <mxPoint x="330" y="440" />
            </Array>
          </mxGeometry>
        </mxCell>
        <mxCell id="aPHUXNIeI92vyV6Ut_RM-4" value="Room" style="rounded=1;whiteSpace=wrap;html=1;" parent="1" vertex="1">
          <mxGeometry x="200" y="50" width="90" height="40" as="geometry" />
        </mxCell>
        <mxCell id="aPHUXNIeI92vyV6Ut_RM-5" style="edgeStyle=orthogonalEdgeStyle;rounded=0;orthogonalLoop=1;jettySize=auto;html=1;exitX=1;exitY=0.5;exitDx=0;exitDy=0;entryX=0;entryY=0.5;entryDx=0;entryDy=0;" parent="1" source="aPHUXNIeI92vyV6Ut_RM-6" target="aPHUXNIeI92vyV6Ut_RM-4" edge="1">
          <mxGeometry relative="1" as="geometry" />
        </mxCell>
        <mxCell id="aPHUXNIeI92vyV6Ut_RM-6" value="Room Selector" style="shape=parallelogram;perimeter=parallelogramPerimeter;whiteSpace=wrap;html=1;fixedSize=1;rounded=1;" parent="1" vertex="1">
          <mxGeometry x="40" y="50" width="120" height="40" as="geometry" />
        </mxCell>
        <mxCell id="aPHUXNIeI92vyV6Ut_RM-7" value="ScreenInfo" style="swimlane;horizontal=0;rounded=1;" parent="1" vertex="1">
          <mxGeometry x="240" y="500" width="240" height="330" as="geometry" />
        </mxCell>
        <mxCell id="aPHUXNIeI92vyV6Ut_RM-8" value="RoomInfo" style="swimlane;fontStyle=0;childLayout=stackLayout;horizontal=1;startSize=30;horizontalStack=0;resizeParent=1;resizeParentMax=0;resizeLast=0;collapsible=1;marginBottom=0;rounded=1;" parent="aPHUXNIeI92vyV6Ut_RM-7" vertex="1">
          <mxGeometry x="40" y="140" width="190" height="180" as="geometry">
            <mxRectangle x="40" y="140" width="80" height="30" as="alternateBounds" />
          </mxGeometry>
        </mxCell>
        <mxCell id="aPHUXNIeI92vyV6Ut_RM-9" value="Name  " style="text;strokeColor=none;fillColor=none;align=left;verticalAlign=middle;spacingLeft=4;spacingRight=4;overflow=hidden;points=[[0,0.5],[1,0.5]];portConstraint=eastwest;rotatable=0;rounded=1;" parent="aPHUXNIeI92vyV6Ut_RM-8" vertex="1">
          <mxGeometry y="30" width="190" height="30" as="geometry" />
        </mxCell>
        <mxCell id="aPHUXNIeI92vyV6Ut_RM-10" value="Temperature" style="text;strokeColor=none;fillColor=none;align=left;verticalAlign=middle;spacingLeft=4;spacingRight=4;overflow=hidden;points=[[0,0.5],[1,0.5]];portConstraint=eastwest;rotatable=0;rounded=1;" parent="aPHUXNIeI92vyV6Ut_RM-8" vertex="1">
          <mxGeometry y="60" width="190" height="30" as="geometry" />
        </mxCell>
        <mxCell id="aPHUXNIeI92vyV6Ut_RM-11" value="Button 1 " style="text;strokeColor=none;fillColor=none;align=left;verticalAlign=middle;spacingLeft=4;spacingRight=4;overflow=hidden;points=[[0,0.5],[1,0.5]];portConstraint=eastwest;rotatable=0;rounded=1;" parent="aPHUXNIeI92vyV6Ut_RM-8" vertex="1">
          <mxGeometry y="90" width="190" height="30" as="geometry" />
        </mxCell>
        <mxCell id="aPHUXNIeI92vyV6Ut_RM-12" value="Button 2" style="text;strokeColor=none;fillColor=none;align=left;verticalAlign=middle;spacingLeft=4;spacingRight=4;overflow=hidden;points=[[0,0.5],[1,0.5]];portConstraint=eastwest;rotatable=0;rounded=1;" parent="aPHUXNIeI92vyV6Ut_RM-8" vertex="1">
          <mxGeometry y="120" width="190" height="30" as="geometry" />
        </mxCell>
        <mxCell id="aPHUXNIeI92vyV6Ut_RM-13" value="Button 3" style="text;strokeColor=none;fillColor=none;align=left;verticalAlign=middle;spacingLeft=4;spacingRight=4;overflow=hidden;points=[[0,0.5],[1,0.5]];portConstraint=eastwest;rotatable=0;rounded=1;" parent="aPHUXNIeI92vyV6Ut_RM-8" vertex="1">
          <mxGeometry y="150" width="190" height="30" as="geometry" />
        </mxCell>
        <mxCell id="aPHUXNIeI92vyV6Ut_RM-14" value="General" style="swimlane;fontStyle=0;childLayout=stackLayout;horizontal=1;startSize=30;horizontalStack=0;resizeParent=1;resizeParentMax=0;resizeLast=0;collapsible=1;marginBottom=0;rounded=1;" parent="aPHUXNIeI92vyV6Ut_RM-7" vertex="1">
          <mxGeometry x="40" y="10" width="190" height="120" as="geometry">
            <mxRectangle x="40" y="10" width="80" height="30" as="alternateBounds" />
          </mxGeometry>
        </mxCell>
        <mxCell id="aPHUXNIeI92vyV6Ut_RM-15" value="Date Time" style="text;strokeColor=none;fillColor=none;align=left;verticalAlign=middle;spacingLeft=4;spacingRight=4;overflow=hidden;points=[[0,0.5],[1,0.5]];portConstraint=eastwest;rotatable=0;rounded=1;" parent="aPHUXNIeI92vyV6Ut_RM-14" vertex="1">
          <mxGeometry y="30" width="190" height="30" as="geometry" />
        </mxCell>
        <mxCell id="aPHUXNIeI92vyV6Ut_RM-16" value="Wifi" style="text;strokeColor=none;fillColor=none;align=left;verticalAlign=middle;spacingLeft=4;spacingRight=4;overflow=hidden;points=[[0,0.5],[1,0.5]];portConstraint=eastwest;rotatable=0;rounded=1;" parent="aPHUXNIeI92vyV6Ut_RM-14" vertex="1">
          <mxGeometry y="60" width="190" height="30" as="geometry" />
        </mxCell>
        <mxCell id="aPHUXNIeI92vyV6Ut_RM-17" value="Battery" style="text;strokeColor=none;fillColor=none;align=left;verticalAlign=middle;spacingLeft=4;spacingRight=4;overflow=hidden;points=[[0,0.5],[1,0.5]];portConstraint=eastwest;rotatable=0;rounded=1;" parent="aPHUXNIeI92vyV6Ut_RM-14" vertex="1">
          <mxGeometry y="90" width="190" height="30" as="geometry" />
        </mxCell>
        <mxCell id="aPHUXNIeI92vyV6Ut_RM-18" style="rounded=0;orthogonalLoop=1;jettySize=auto;html=1;exitX=1;exitY=0.5;exitDx=0;exitDy=0;entryX=0;entryY=0.5;entryDx=0;entryDy=0;fontSize=10;" parent="1" source="aPHUXNIeI92vyV6Ut_RM-45" target="aPHUXNIeI92vyV6Ut_RM-24" edge="1">
          <mxGeometry relative="1" as="geometry" />
        </mxCell>
        <mxCell id="aPHUXNIeI92vyV6Ut_RM-19" value="" style="edgeStyle=orthogonalEdgeStyle;curved=1;rounded=0;orthogonalLoop=1;jettySize=auto;html=1;fontSize=10;startArrow=classic;startFill=1;" parent="1" source="aPHUXNIeI92vyV6Ut_RM-20" target="aPHUXNIeI92vyV6Ut_RM-45" edge="1">
          <mxGeometry relative="1" as="geometry" />
        </mxCell>
        <mxCell id="aPHUXNIeI92vyV6Ut_RM-20" value="state" style="shape=parallelogram;html=1;strokeWidth=1;perimeter=parallelogramPerimeter;whiteSpace=wrap;rounded=1;arcSize=12;size=0.23;" parent="1" vertex="1">
          <mxGeometry x="540" y="780" width="100" height="30" as="geometry" />
        </mxCell>
        <mxCell id="aPHUXNIeI92vyV6Ut_RM-21" style="rounded=0;orthogonalLoop=1;jettySize=auto;html=1;exitX=1;exitY=0.5;exitDx=0;exitDy=0;startArrow=classic;startFill=1;entryX=0;entryY=0.5;entryDx=0;entryDy=0;" parent="1" source="aPHUXNIeI92vyV6Ut_RM-11" target="aPHUXNIeI92vyV6Ut_RM-20" edge="1">
          <mxGeometry relative="1" as="geometry" />
        </mxCell>
        <mxCell id="aPHUXNIeI92vyV6Ut_RM-22" style="rounded=0;orthogonalLoop=1;jettySize=auto;html=1;exitX=1;exitY=0.5;exitDx=0;exitDy=0;entryX=0;entryY=0.5;entryDx=0;entryDy=0;startArrow=classic;startFill=1;" parent="1" source="aPHUXNIeI92vyV6Ut_RM-12" target="aPHUXNIeI92vyV6Ut_RM-20" edge="1">
          <mxGeometry relative="1" as="geometry">
            <mxPoint x="610" y="795.2758620689656" as="targetPoint" />
          </mxGeometry>
        </mxCell>
        <mxCell id="aPHUXNIeI92vyV6Ut_RM-23" style="rounded=0;orthogonalLoop=1;jettySize=auto;html=1;exitX=1;exitY=0.5;exitDx=0;exitDy=0;entryX=0;entryY=0.5;entryDx=0;entryDy=0;startArrow=classic;startFill=1;" parent="1" source="aPHUXNIeI92vyV6Ut_RM-13" target="aPHUXNIeI92vyV6Ut_RM-20" edge="1">
          <mxGeometry relative="1" as="geometry">
            <mxPoint x="610" y="790" as="targetPoint" />
          </mxGeometry>
        </mxCell>
        <mxCell id="aPHUXNIeI92vyV6Ut_RM-24" value="outline / filled" style="text;html=1;strokeColor=none;fillColor=none;align=center;verticalAlign=middle;whiteSpace=wrap;rounded=0;labelBorderColor=none;fontSize=10;" parent="1" vertex="1">
          <mxGeometry x="890" y="780" width="110" height="30" as="geometry" />
        </mxCell>
        <mxCell id="aPHUXNIeI92vyV6Ut_RM-25" style="edgeStyle=orthogonalEdgeStyle;rounded=0;orthogonalLoop=1;jettySize=auto;html=1;exitX=0.5;exitY=1;exitDx=0;exitDy=0;entryX=0;entryY=0.5;entryDx=0;entryDy=0;fontSize=10;curved=1;" parent="1" source="aPHUXNIeI92vyV6Ut_RM-4" target="aPHUXNIeI92vyV6Ut_RM-11" edge="1">
          <mxGeometry relative="1" as="geometry">
            <Array as="points">
              <mxPoint x="245" y="140" />
              <mxPoint x="10" y="140" />
              <mxPoint x="10" y="745" />
            </Array>
          </mxGeometry>
        </mxCell>
        <mxCell id="aPHUXNIeI92vyV6Ut_RM-26" value="Logic" style="swimlane;horizontal=0;rounded=1;labelBorderColor=none;fontSize=10;strokeWidth=1;" parent="1" vertex="1">
          <mxGeometry x="240" y="140" width="610" height="340" as="geometry" />
        </mxCell>
        <mxCell id="aPHUXNIeI92vyV6Ut_RM-27" value="Button Function Room 1" style="swimlane;fontStyle=0;childLayout=stackLayout;horizontal=1;startSize=30;horizontalStack=0;resizeParent=1;resizeParentMax=0;resizeLast=0;collapsible=1;marginBottom=0;rounded=1;" parent="aPHUXNIeI92vyV6Ut_RM-26" vertex="1">
          <mxGeometry x="120" y="30" width="140" height="120" as="geometry">
            <mxRectangle x="380" y="90" width="160" height="30" as="alternateBounds" />
          </mxGeometry>
        </mxCell>
        <mxCell id="aPHUXNIeI92vyV6Ut_RM-28" value="Fnc A" style="text;strokeColor=none;fillColor=none;align=left;verticalAlign=middle;spacingLeft=4;spacingRight=4;overflow=hidden;points=[[0,0.5],[1,0.5]];portConstraint=eastwest;rotatable=0;" parent="aPHUXNIeI92vyV6Ut_RM-27" vertex="1">
          <mxGeometry y="30" width="140" height="30" as="geometry" />
        </mxCell>
        <mxCell id="aPHUXNIeI92vyV6Ut_RM-29" value="Fnc B" style="text;strokeColor=none;fillColor=none;align=left;verticalAlign=middle;spacingLeft=4;spacingRight=4;overflow=hidden;points=[[0,0.5],[1,0.5]];portConstraint=eastwest;rotatable=0;" parent="aPHUXNIeI92vyV6Ut_RM-27" vertex="1">
          <mxGeometry y="60" width="140" height="30" as="geometry" />
        </mxCell>
        <mxCell id="aPHUXNIeI92vyV6Ut_RM-30" value="Fnc C" style="text;strokeColor=none;fillColor=none;align=left;verticalAlign=middle;spacingLeft=4;spacingRight=4;overflow=hidden;points=[[0,0.5],[1,0.5]];portConstraint=eastwest;rotatable=0;" parent="aPHUXNIeI92vyV6Ut_RM-27" vertex="1">
          <mxGeometry y="90" width="140" height="30" as="geometry" />
        </mxCell>
        <mxCell id="aPHUXNIeI92vyV6Ut_RM-31" value="Button Function Room 2" style="swimlane;fontStyle=0;childLayout=stackLayout;horizontal=1;startSize=30;horizontalStack=0;resizeParent=1;resizeParentMax=0;resizeLast=0;collapsible=1;marginBottom=0;rounded=1;" parent="aPHUXNIeI92vyV6Ut_RM-26" vertex="1">
          <mxGeometry x="290" y="30" width="140" height="120" as="geometry">
            <mxRectangle x="550" y="90" width="160" height="30" as="alternateBounds" />
          </mxGeometry>
        </mxCell>
        <mxCell id="aPHUXNIeI92vyV6Ut_RM-32" value="Fnc A" style="text;strokeColor=none;fillColor=none;align=left;verticalAlign=middle;spacingLeft=4;spacingRight=4;overflow=hidden;points=[[0,0.5],[1,0.5]];portConstraint=eastwest;rotatable=0;" parent="aPHUXNIeI92vyV6Ut_RM-31" vertex="1">
          <mxGeometry y="30" width="140" height="30" as="geometry" />
        </mxCell>
        <mxCell id="aPHUXNIeI92vyV6Ut_RM-33" value="Fnc B" style="text;strokeColor=none;fillColor=none;align=left;verticalAlign=middle;spacingLeft=4;spacingRight=4;overflow=hidden;points=[[0,0.5],[1,0.5]];portConstraint=eastwest;rotatable=0;" parent="aPHUXNIeI92vyV6Ut_RM-31" vertex="1">
          <mxGeometry y="60" width="140" height="30" as="geometry" />
        </mxCell>
        <mxCell id="aPHUXNIeI92vyV6Ut_RM-34" value="Fnc C" style="text;strokeColor=none;fillColor=none;align=left;verticalAlign=middle;spacingLeft=4;spacingRight=4;overflow=hidden;points=[[0,0.5],[1,0.5]];portConstraint=eastwest;rotatable=0;" parent="aPHUXNIeI92vyV6Ut_RM-31" vertex="1">
          <mxGeometry y="90" width="140" height="30" as="geometry" />
        </mxCell>
        <mxCell id="aPHUXNIeI92vyV6Ut_RM-35" value="" style="swimlane;startSize=0;rounded=1;arcSize=26;" parent="aPHUXNIeI92vyV6Ut_RM-26" vertex="1">
          <mxGeometry x="180" y="200" width="200" height="70" as="geometry" />
        </mxCell>
        <mxCell id="aPHUXNIeI92vyV6Ut_RM-36" value="btn 1" style="ellipse;whiteSpace=wrap;html=1;aspect=fixed;" parent="aPHUXNIeI92vyV6Ut_RM-35" vertex="1">
          <mxGeometry x="20" y="20" width="40" height="40" as="geometry" />
        </mxCell>
        <mxCell id="aPHUXNIeI92vyV6Ut_RM-37" value="btn 2" style="ellipse;whiteSpace=wrap;html=1;aspect=fixed;" parent="aPHUXNIeI92vyV6Ut_RM-35" vertex="1">
          <mxGeometry x="80" y="20" width="40" height="40" as="geometry" />
        </mxCell>
        <mxCell id="aPHUXNIeI92vyV6Ut_RM-38" value="btn 3" style="ellipse;whiteSpace=wrap;html=1;aspect=fixed;" parent="aPHUXNIeI92vyV6Ut_RM-35" vertex="1">
          <mxGeometry x="140" y="20" width="40" height="40" as="geometry" />
        </mxCell>
        <mxCell id="aPHUXNIeI92vyV6Ut_RM-39" value="" style="edgeStyle=orthogonalEdgeStyle;rounded=0;orthogonalLoop=1;jettySize=auto;html=1;entryX=0.5;entryY=0;entryDx=0;entryDy=0;" parent="aPHUXNIeI92vyV6Ut_RM-26" source="aPHUXNIeI92vyV6Ut_RM-27" target="aPHUXNIeI92vyV6Ut_RM-35" edge="1">
          <mxGeometry relative="1" as="geometry" />
        </mxCell>
        <mxCell id="aPHUXNIeI92vyV6Ut_RM-40" style="edgeStyle=orthogonalEdgeStyle;rounded=0;orthogonalLoop=1;jettySize=auto;html=1;exitX=0.5;exitY=1;exitDx=0;exitDy=0;entryX=0.5;entryY=0;entryDx=0;entryDy=0;" parent="aPHUXNIeI92vyV6Ut_RM-26" source="aPHUXNIeI92vyV6Ut_RM-31" target="aPHUXNIeI92vyV6Ut_RM-35" edge="1">
          <mxGeometry relative="1" as="geometry" />
        </mxCell>
        <mxCell id="aPHUXNIeI92vyV6Ut_RM-41" value="NodeRed" style="shape=step;perimeter=stepPerimeter;whiteSpace=wrap;html=1;fixedSize=1;rounded=1;" parent="aPHUXNIeI92vyV6Ut_RM-26" vertex="1">
          <mxGeometry x="467" y="290" width="120" height="40" as="geometry" />
        </mxCell>
        <mxCell id="aPHUXNIeI92vyV6Ut_RM-42" style="edgeStyle=orthogonalEdgeStyle;rounded=0;orthogonalLoop=1;jettySize=auto;html=1;exitX=0.5;exitY=1;exitDx=0;exitDy=0;entryX=0;entryY=0.5;entryDx=0;entryDy=0;" parent="aPHUXNIeI92vyV6Ut_RM-26" source="aPHUXNIeI92vyV6Ut_RM-36" target="aPHUXNIeI92vyV6Ut_RM-41" edge="1">
          <mxGeometry relative="1" as="geometry">
            <Array as="points">
              <mxPoint x="220" y="310" />
            </Array>
          </mxGeometry>
        </mxCell>
        <mxCell id="aPHUXNIeI92vyV6Ut_RM-43" style="edgeStyle=orthogonalEdgeStyle;rounded=0;orthogonalLoop=1;jettySize=auto;html=1;exitX=0.5;exitY=1;exitDx=0;exitDy=0;entryX=0;entryY=0.5;entryDx=0;entryDy=0;" parent="aPHUXNIeI92vyV6Ut_RM-26" source="aPHUXNIeI92vyV6Ut_RM-37" target="aPHUXNIeI92vyV6Ut_RM-41" edge="1">
          <mxGeometry relative="1" as="geometry">
            <Array as="points">
              <mxPoint x="280" y="310" />
            </Array>
          </mxGeometry>
        </mxCell>
        <mxCell id="aPHUXNIeI92vyV6Ut_RM-44" style="edgeStyle=orthogonalEdgeStyle;rounded=0;orthogonalLoop=1;jettySize=auto;html=1;exitX=0.5;exitY=1;exitDx=0;exitDy=0;entryX=0;entryY=0.5;entryDx=0;entryDy=0;" parent="aPHUXNIeI92vyV6Ut_RM-26" source="aPHUXNIeI92vyV6Ut_RM-38" target="aPHUXNIeI92vyV6Ut_RM-41" edge="1">
          <mxGeometry relative="1" as="geometry">
            <mxPoint x="290" y="270" as="sourcePoint" />
            <mxPoint x="430" y="320" as="targetPoint" />
            <Array as="points">
              <mxPoint x="340" y="310" />
            </Array>
          </mxGeometry>
        </mxCell>
        <mxCell id="aPHUXNIeI92vyV6Ut_RM-45" value="mdi&lt;br&gt;label" style="whiteSpace=wrap;html=1;strokeWidth=1;rounded=1;arcSize=12;" parent="1" vertex="1">
          <mxGeometry x="710" y="765" width="120" height="60" as="geometry" />
        </mxCell>
        <mxCell id="9DS57FAO6aVHSwEOX1pS-1" value="Home Assistant" style="whiteSpace=wrap;html=1;rounded=1;" parent="1" vertex="1">
          <mxGeometry x="907" y="420" width="120" height="60" as="geometry" />
        </mxCell>
        <mxCell id="9DS57FAO6aVHSwEOX1pS-2" value="" style="edgeStyle=orthogonalEdgeStyle;rounded=0;orthogonalLoop=1;jettySize=auto;html=1;" parent="1" source="aPHUXNIeI92vyV6Ut_RM-41" target="9DS57FAO6aVHSwEOX1pS-1" edge="1">
          <mxGeometry relative="1" as="geometry" />
        </mxCell>
      </root>
    </mxGraphModel>
  </diagram>
  <diagram id="ZDih3I9HqbOAp9GsLAQQ" name="Page-2">
    <mxGraphModel dx="1298" dy="777" grid="1" gridSize="10" guides="1" tooltips="1" connect="1" arrows="1" fold="1" page="1" pageScale="1" pageWidth="1169" pageHeight="827" math="0" shadow="0">
      <root>
        <mxCell id="wcaAs579zlpX51kEkVPv-0" />
        <mxCell id="wcaAs579zlpX51kEkVPv-1" parent="wcaAs579zlpX51kEkVPv-0" />
        <mxCell id="wcaAs579zlpX51kEkVPv-4" value="" style="edgeStyle=orthogonalEdgeStyle;rounded=0;orthogonalLoop=1;jettySize=auto;html=1;" edge="1" parent="wcaAs579zlpX51kEkVPv-1" source="wcaAs579zlpX51kEkVPv-2" target="wcaAs579zlpX51kEkVPv-3">
          <mxGeometry relative="1" as="geometry" />
        </mxCell>
        <mxCell id="wcaAs579zlpX51kEkVPv-6" value="" style="edgeStyle=orthogonalEdgeStyle;rounded=0;orthogonalLoop=1;jettySize=auto;html=1;" edge="1" parent="wcaAs579zlpX51kEkVPv-1" source="wcaAs579zlpX51kEkVPv-3" target="wcaAs579zlpX51kEkVPv-5">
          <mxGeometry relative="1" as="geometry" />
        </mxCell>
        <mxCell id="wcaAs579zlpX51kEkVPv-9" value="" style="edgeStyle=orthogonalEdgeStyle;rounded=0;orthogonalLoop=1;jettySize=auto;html=1;" edge="1" parent="wcaAs579zlpX51kEkVPv-1" source="wcaAs579zlpX51kEkVPv-7" target="wcaAs579zlpX51kEkVPv-8">
          <mxGeometry relative="1" as="geometry" />
        </mxCell>
        <mxCell id="wcaAs579zlpX51kEkVPv-11" value="" style="edgeStyle=orthogonalEdgeStyle;rounded=0;orthogonalLoop=1;jettySize=auto;html=1;" edge="1" parent="wcaAs579zlpX51kEkVPv-1" source="wcaAs579zlpX51kEkVPv-8" target="wcaAs579zlpX51kEkVPv-10">
          <mxGeometry relative="1" as="geometry" />
        </mxCell>
        <mxCell id="wcaAs579zlpX51kEkVPv-12" value="" style="group" vertex="1" connectable="0" parent="wcaAs579zlpX51kEkVPv-1">
          <mxGeometry x="160" y="130" width="120" height="110" as="geometry" />
        </mxCell>
        <mxCell id="wcaAs579zlpX51kEkVPv-2" value="INPUT" style="rounded=1;whiteSpace=wrap;html=1;" vertex="1" parent="wcaAs579zlpX51kEkVPv-12">
          <mxGeometry y="50" width="120" height="60" as="geometry" />
        </mxCell>
        <mxCell id="wcaAs579zlpX51kEkVPv-7" value="Hardware" style="text;html=1;strokeColor=none;fillColor=none;align=center;verticalAlign=middle;whiteSpace=wrap;rounded=0;" vertex="1" parent="wcaAs579zlpX51kEkVPv-12">
          <mxGeometry x="30" width="60" height="30" as="geometry" />
        </mxCell>
        <mxCell id="wcaAs579zlpX51kEkVPv-13" value="" style="group" vertex="1" connectable="0" parent="wcaAs579zlpX51kEkVPv-1">
          <mxGeometry x="530" y="130" width="120" height="110" as="geometry" />
        </mxCell>
        <mxCell id="wcaAs579zlpX51kEkVPv-3" value="PROCESS" style="rounded=1;whiteSpace=wrap;html=1;" vertex="1" parent="wcaAs579zlpX51kEkVPv-13">
          <mxGeometry y="50" width="120" height="60" as="geometry" />
        </mxCell>
        <mxCell id="wcaAs579zlpX51kEkVPv-8" value="Software" style="text;html=1;strokeColor=none;fillColor=none;align=center;verticalAlign=middle;whiteSpace=wrap;rounded=0;" vertex="1" parent="wcaAs579zlpX51kEkVPv-13">
          <mxGeometry x="30" width="60" height="30" as="geometry" />
        </mxCell>
        <mxCell id="wcaAs579zlpX51kEkVPv-14" value="" style="group" vertex="1" connectable="0" parent="wcaAs579zlpX51kEkVPv-1">
          <mxGeometry x="900" y="130" width="120" height="110" as="geometry" />
        </mxCell>
        <mxCell id="wcaAs579zlpX51kEkVPv-5" value="OUTPUT" style="rounded=1;whiteSpace=wrap;html=1;" vertex="1" parent="wcaAs579zlpX51kEkVPv-14">
          <mxGeometry y="50" width="120" height="60" as="geometry" />
        </mxCell>
        <mxCell id="wcaAs579zlpX51kEkVPv-10" value="Hardware" style="text;html=1;strokeColor=none;fillColor=none;align=center;verticalAlign=middle;whiteSpace=wrap;rounded=0;" vertex="1" parent="wcaAs579zlpX51kEkVPv-14">
          <mxGeometry x="30" width="60" height="30" as="geometry" />
        </mxCell>
        <mxCell id="wcaAs579zlpX51kEkVPv-16" value="List" style="swimlane;fontStyle=0;childLayout=stackLayout;horizontal=1;startSize=30;horizontalStack=0;resizeParent=1;resizeParentMax=0;resizeLast=0;collapsible=1;marginBottom=0;" vertex="1" parent="wcaAs579zlpX51kEkVPv-1">
          <mxGeometry x="150" y="280" width="140" height="180" as="geometry" />
        </mxCell>
        <mxCell id="wcaAs579zlpX51kEkVPv-17" value="Button   " style="text;strokeColor=none;fillColor=none;align=left;verticalAlign=middle;spacingLeft=4;spacingRight=4;overflow=hidden;points=[[0,0.5],[1,0.5]];portConstraint=eastwest;rotatable=0;" vertex="1" parent="wcaAs579zlpX51kEkVPv-16">
          <mxGeometry y="30" width="140" height="30" as="geometry" />
        </mxCell>
        <mxCell id="wcaAs579zlpX51kEkVPv-18" value="Pot" style="text;strokeColor=none;fillColor=none;align=left;verticalAlign=middle;spacingLeft=4;spacingRight=4;overflow=hidden;points=[[0,0.5],[1,0.5]];portConstraint=eastwest;rotatable=0;" vertex="1" parent="wcaAs579zlpX51kEkVPv-16">
          <mxGeometry y="60" width="140" height="30" as="geometry" />
        </mxCell>
        <mxCell id="wcaAs579zlpX51kEkVPv-19" value="Slider" style="text;strokeColor=none;fillColor=none;align=left;verticalAlign=middle;spacingLeft=4;spacingRight=4;overflow=hidden;points=[[0,0.5],[1,0.5]];portConstraint=eastwest;rotatable=0;" vertex="1" parent="wcaAs579zlpX51kEkVPv-16">
          <mxGeometry y="90" width="140" height="30" as="geometry" />
        </mxCell>
        <mxCell id="wcaAs579zlpX51kEkVPv-21" value="Joystick" style="text;strokeColor=none;fillColor=none;align=left;verticalAlign=middle;spacingLeft=4;spacingRight=4;overflow=hidden;points=[[0,0.5],[1,0.5]];portConstraint=eastwest;rotatable=0;" vertex="1" parent="wcaAs579zlpX51kEkVPv-16">
          <mxGeometry y="120" width="140" height="30" as="geometry" />
        </mxCell>
        <mxCell id="wcaAs579zlpX51kEkVPv-20" value="...." style="text;strokeColor=none;fillColor=none;align=left;verticalAlign=middle;spacingLeft=4;spacingRight=4;overflow=hidden;points=[[0,0.5],[1,0.5]];portConstraint=eastwest;rotatable=0;" vertex="1" parent="wcaAs579zlpX51kEkVPv-16">
          <mxGeometry y="150" width="140" height="30" as="geometry" />
        </mxCell>
        <mxCell id="wcaAs579zlpX51kEkVPv-22" value="List" style="swimlane;fontStyle=0;childLayout=stackLayout;horizontal=1;startSize=30;horizontalStack=0;resizeParent=1;resizeParentMax=0;resizeLast=0;collapsible=1;marginBottom=0;" vertex="1" parent="wcaAs579zlpX51kEkVPv-1">
          <mxGeometry x="890" y="325" width="190" height="90" as="geometry" />
        </mxCell>
        <mxCell id="wcaAs579zlpX51kEkVPv-23" value="Actions in Home Assistant" style="text;strokeColor=none;fillColor=none;align=left;verticalAlign=middle;spacingLeft=4;spacingRight=4;overflow=hidden;points=[[0,0.5],[1,0.5]];portConstraint=eastwest;rotatable=0;" vertex="1" parent="wcaAs579zlpX51kEkVPv-22">
          <mxGeometry y="30" width="190" height="30" as="geometry" />
        </mxCell>
        <mxCell id="wcaAs579zlpX51kEkVPv-27" value="...." style="text;strokeColor=none;fillColor=none;align=left;verticalAlign=middle;spacingLeft=4;spacingRight=4;overflow=hidden;points=[[0,0.5],[1,0.5]];portConstraint=eastwest;rotatable=0;" vertex="1" parent="wcaAs579zlpX51kEkVPv-22">
          <mxGeometry y="60" width="190" height="30" as="geometry" />
        </mxCell>
        <mxCell id="wcaAs579zlpX51kEkVPv-30" value="Onderzoeken dat de output tov de&amp;nbsp; inputmethode onmiddellijk duidelijk is voor de gebruiker" style="text;html=1;strokeColor=none;fillColor=none;align=left;verticalAlign=top;whiteSpace=wrap;rounded=0;" vertex="1" parent="wcaAs579zlpX51kEkVPv-1">
          <mxGeometry x="150" y="480" width="190" height="110" as="geometry" />
        </mxCell>
      </root>
    </mxGraphModel>
  </diagram>
  <diagram id="UDzFq8q_aCLPLWf30YWS" name="nodeRED">
    <mxGraphModel dx="954" dy="777" grid="1" gridSize="10" guides="1" tooltips="1" connect="1" arrows="1" fold="1" page="1" pageScale="1" pageWidth="1169" pageHeight="827" math="0" shadow="0">
      <root>
        <mxCell id="hCE0MqeGCk9SMAfYyRuL-0" />
        <mxCell id="hCE0MqeGCk9SMAfYyRuL-1" parent="hCE0MqeGCk9SMAfYyRuL-0" />
        <mxCell id="c_HduAxGAEDBOfd_LvTJ-0" value="Display" style="swimlane;" vertex="1" parent="hCE0MqeGCk9SMAfYyRuL-1">
          <mxGeometry x="700" y="40" width="430" height="370" as="geometry" />
        </mxCell>
        <mxCell id="c_HduAxGAEDBOfd_LvTJ-3" style="edgeStyle=orthogonalEdgeStyle;rounded=0;orthogonalLoop=1;jettySize=auto;html=1;exitX=1;exitY=0.5;exitDx=0;exitDy=0;entryX=0;entryY=0.5;entryDx=0;entryDy=0;" edge="1" parent="hCE0MqeGCk9SMAfYyRuL-1" source="c_HduAxGAEDBOfd_LvTJ-1" target="c_HduAxGAEDBOfd_LvTJ-2">
          <mxGeometry relative="1" as="geometry" />
        </mxCell>
        <mxCell id="c_HduAxGAEDBOfd_LvTJ-1" value="Input Select - Hass" style="rounded=1;whiteSpace=wrap;html=1;" vertex="1" parent="hCE0MqeGCk9SMAfYyRuL-1">
          <mxGeometry x="80" y="70" width="140" height="60" as="geometry" />
        </mxCell>
        <mxCell id="c_HduAxGAEDBOfd_LvTJ-9" style="edgeStyle=orthogonalEdgeStyle;rounded=0;orthogonalLoop=1;jettySize=auto;html=1;exitX=1;exitY=0.5;exitDx=0;exitDy=0;entryX=0.5;entryY=0;entryDx=0;entryDy=0;" edge="1" parent="hCE0MqeGCk9SMAfYyRuL-1" source="c_HduAxGAEDBOfd_LvTJ-2" target="c_HduAxGAEDBOfd_LvTJ-5">
          <mxGeometry relative="1" as="geometry" />
        </mxCell>
        <mxCell id="c_HduAxGAEDBOfd_LvTJ-2" value="Room" style="shape=parallelogram;perimeter=parallelogramPerimeter;whiteSpace=wrap;html=1;fixedSize=1;rounded=1;" vertex="1" parent="hCE0MqeGCk9SMAfYyRuL-1">
          <mxGeometry x="280" y="70" width="120" height="60" as="geometry" />
        </mxCell>
        <mxCell id="c_HduAxGAEDBOfd_LvTJ-5" value="Room" style="swimlane;fontStyle=0;childLayout=stackLayout;horizontal=1;startSize=30;horizontalStack=0;resizeParent=1;resizeParentMax=0;resizeLast=0;collapsible=1;marginBottom=0;rounded=1;" vertex="1" parent="hCE0MqeGCk9SMAfYyRuL-1">
          <mxGeometry x="445" y="180" width="140" height="120" as="geometry" />
        </mxCell>
        <mxCell id="c_HduAxGAEDBOfd_LvTJ-6" value="Room Name" style="text;strokeColor=none;fillColor=none;align=left;verticalAlign=middle;spacingLeft=4;spacingRight=4;overflow=hidden;points=[[0,0.5],[1,0.5]];portConstraint=eastwest;rotatable=0;rounded=1;" vertex="1" parent="c_HduAxGAEDBOfd_LvTJ-5">
          <mxGeometry y="30" width="140" height="30" as="geometry" />
        </mxCell>
        <mxCell id="c_HduAxGAEDBOfd_LvTJ-7" value="Button Function 1" style="text;strokeColor=none;fillColor=none;align=left;verticalAlign=middle;spacingLeft=4;spacingRight=4;overflow=hidden;points=[[0,0.5],[1,0.5]];portConstraint=eastwest;rotatable=0;rounded=1;" vertex="1" parent="c_HduAxGAEDBOfd_LvTJ-5">
          <mxGeometry y="60" width="140" height="30" as="geometry" />
        </mxCell>
        <mxCell id="c_HduAxGAEDBOfd_LvTJ-8" value="Item 3" style="text;strokeColor=none;fillColor=none;align=left;verticalAlign=middle;spacingLeft=4;spacingRight=4;overflow=hidden;points=[[0,0.5],[1,0.5]];portConstraint=eastwest;rotatable=0;rounded=1;" vertex="1" parent="c_HduAxGAEDBOfd_LvTJ-5">
          <mxGeometry y="90" width="140" height="30" as="geometry" />
        </mxCell>
      </root>
    </mxGraphModel>
  </diagram>
</mxfile>
